STARTFONT 2.1
COMMENT GENERATED BY "bin2bdf 1.0"
COMMENT AUTHOR mleisher@nmsu.edu (Mark Leisher)
COMMENT DATE Mon Oct 23 00:46:18 2000
COMMENT ---------------------------
FONT ed8
SIZE 8 100 100
FONTBOUNDINGBOX 8 16 0 -2
STARTPROPERTIES 5
COPYRIGHT "Public Domain"
DEFAULT_CHAR 41377
FONT_ASCENT 6
FONT_DESCENT 2
_XMBDFED_INFO "Edited with xmbdfed 4.3."
ENDPROPERTIES
CHARS 148
STARTCHAR char41344
ENCODING 41344
SWIDTH 540 0
DWIDTH 6 0
BBX 6 8 1 1
BITMAP
84
84
84
84
84
84
84
78
ENDCHAR
STARTCHAR a2e9
ENCODING 41347
SWIDTH 720 0
DWIDTH 8 0
BBX 6 8 0 0
BITMAP
84
84
84
7C
04
04
04
04
ENDCHAR
STARTCHAR a3f0
ENCODING 41349
SWIDTH 720 0
DWIDTH 8 0
BBX 7 8 1 2
BITMAP
82
82
E2
22
42
42
42
3C
ENDCHAR
STARTCHAR char41352
ENCODING 41352
SWIDTH 630 0
DWIDTH 7 0
BBX 7 8 0 0
BITMAP
10
10
28
44
82
82
82
82
ENDCHAR
STARTCHAR a2ad
ENCODING 41355
SWIDTH 630 0
DWIDTH 7 0
BBX 7 8 0 0
BITMAP
20
10
28
44
82
82
02
02
ENDCHAR
STARTCHAR a1ad
ENCODING 41357
SWIDTH 1440 0
DWIDTH 16 0
BBX 8 8 0 0
BITMAP
30
18
24
42
E1
A1
E1
41
ENDCHAR
STARTCHAR char41352
ENCODING 41360
SWIDTH 1350 0
DWIDTH 15 0
BBX 8 12 0 0
BITMAP
10
10
10
7E
91
91
91
91
91
91
91
91
ENDCHAR
STARTCHAR a1af
ENCODING 41365
SWIDTH 720 0
DWIDTH 8 0
BBX 8 12 0 0
BITMAP
20
38
08
7E
89
89
89
89
89
89
89
89
ENDCHAR
STARTCHAR a5a8
ENCODING 41366
SWIDTH 720 0
DWIDTH 8 0
BBX 7 8 0 0
BITMAP
10
10
10
7C
92
92
80
80
ENDCHAR
STARTCHAR a2d7
ENCODING 41373
SWIDTH 1260 0
DWIDTH 14 0
BBX 7 9 0 0
BITMAP
92
92
92
BC
C0
80
80
80
80
ENDCHAR
STARTCHAR a4e3
ENCODING 41374
SWIDTH 720 0
DWIDTH 8 0
BBX 8 8 0 0
BITMAP
49
49
4D
32
10
20
40
80
ENDCHAR
STARTCHAR a1b0
ENCODING 41376
SWIDTH 630 0
DWIDTH 7 0
BBX 7 8 0 0
BITMAP
7C
82
AA
AA
AA
AA
AA
44
ENDCHAR
STARTCHAR a4af
ENCODING 41381
SWIDTH 630 0
DWIDTH 7 0
BBX 7 11 0 0
BITMAP
7C
AA
AA
AA
AA
AA
AA
64
20
40
80
ENDCHAR
STARTCHAR a1e3
ENCODING 41382
SWIDTH 810 0
DWIDTH 9 0
BBX 7 11 0 0
BITMAP
7C
AA
AA
AA
AA
AA
AA
64
20
20
20
ENDCHAR
STARTCHAR char41348
ENCODING 41384
SWIDTH 360 0
DWIDTH 4 0
BBX 6 8 1 0
BITMAP
10
10
20
40
80
80
80
7C
ENDCHAR
STARTCHAR a1a7
ENCODING 41385
SWIDTH 720 0
DWIDTH 8 0
BBX 7 8 0 0
BITMAP
20
20
40
80
80
7E
10
10
ENDCHAR
STARTCHAR a1f5
ENCODING 41386
SWIDTH 630 0
DWIDTH 7 0
BBX 6 8 0 0
BITMAP
10
10
20
40
80
84
84
78
ENDCHAR
STARTCHAR a2b3
ENCODING 41387
SWIDTH 720 0
DWIDTH 8 0
BBX 7 8 0 0
BITMAP
10
10
20
40
80
9E
92
70
ENDCHAR
STARTCHAR a3f7
ENCODING 41389
SWIDTH 540 0
DWIDTH 6 0
BBX 6 8 0 0
BITMAP
3C
44
80
80
80
80
84
7C
ENDCHAR
STARTCHAR a5ab
ENCODING 41390
SWIDTH 720 0
DWIDTH 8 0
BBX 7 8 0 0
BITMAP
3C
52
8C
80
80
80
84
7C
ENDCHAR
STARTCHAR a2f8
ENCODING 41391
SWIDTH 630 0
DWIDTH 7 0
BBX 6 8 0 0
BITMAP
44
7C
10
20
40
8C
94
60
ENDCHAR
STARTCHAR char41349
ENCODING 41392
SWIDTH 630 0
DWIDTH 7 0
BBX 7 8 1 0
BITMAP
10
10
FE
82
82
82
82
82
ENDCHAR
STARTCHAR a2f3
ENCODING 41395
SWIDTH 720 0
DWIDTH 8 0
BBX 7 8 0 0
BITMAP
10
10
FE
82
82
82
02
02
ENDCHAR
STARTCHAR a4d9
ENCODING 41397
SWIDTH 810 0
DWIDTH 9 0
BBX 7 8 0 0
BITMAP
40
20
FE
82
82
82
82
82
ENDCHAR
STARTCHAR a4cd
ENCODING 41398
SWIDTH 630 0
DWIDTH 7 0
BBX 7 8 0 0
BITMAP
10
10
FE
82
82
82
80
80
ENDCHAR
STARTCHAR char41347
ENCODING 41400
SWIDTH 630 0
DWIDTH 7 0
BBX 7 8 0 0
BITMAP
FE
10
7C
82
82
82
82
82
ENDCHAR
STARTCHAR a2f4
ENCODING 41403
SWIDTH 630 0
DWIDTH 7 0
BBX 7 8 1 0
BITMAP
FE
10
7C
82
82
82
02
02
ENDCHAR
STARTCHAR a5af
ENCODING 41406
SWIDTH 720 0
DWIDTH 8 0
BBX 7 8 0 0
BITMAP
FE
10
7C
82
82
82
80
80
ENDCHAR
STARTCHAR char41351
ENCODING 41408
SWIDTH 270 0
DWIDTH 3 0
BBX 7 8 0 0
BITMAP
10
10
7C
92
92
7C
10
10
ENDCHAR
STARTCHAR a1c3
ENCODING 41409
SWIDTH 630 0
DWIDTH 7 0
BBX 7 8 0 0
BITMAP
10
7C
92
92
7C
10
1E
10
ENDCHAR
STARTCHAR a2b7
ENCODING 41411
SWIDTH 720 0
DWIDTH 8 0
BBX 7 8 1 2
BITMAP
10
10
7C
92
92
7C
10
F0
ENDCHAR
STARTCHAR a4a4
ENCODING 41412
SWIDTH 720 0
DWIDTH 8 0
BBX 7 8 0 0
BITMAP
10
7C
92
7C
10
1C
12
1C
ENDCHAR
STARTCHAR a3fb
ENCODING 41413
SWIDTH 720 0
DWIDTH 8 0
BBX 7 8 0 0
BITMAP
40
70
10
7C
92
7C
10
10
ENDCHAR
STARTCHAR a4d0
ENCODING 41414
SWIDTH 720 0
DWIDTH 8 0
BBX 7 8 0 0
BITMAP
18
24
18
7C
92
92
7C
10
ENDCHAR
STARTCHAR char41351
ENCODING 41416
SWIDTH 270 0
DWIDTH 3 0
BBX 7 9 0 0
BITMAP
FE
10
10
7C
92
92
7C
10
10
ENDCHAR
STARTCHAR a3ab
ENCODING 41417
SWIDTH 1260 0
DWIDTH 14 0
BBX 7 9 0 0
BITMAP
FE
10
7C
92
92
7C
10
1E
10
ENDCHAR
STARTCHAR a2c8
ENCODING 41418
SWIDTH 810 0
DWIDTH 9 0
BBX 7 8 0 0
BITMAP
FE
10
7C
92
92
7C
10
1E
ENDCHAR
STARTCHAR a1e7
ENCODING 41419
SWIDTH 630 0
DWIDTH 7 0
BBX 7 8 0 0
BITMAP
FE
10
7C
92
92
7C
10
F0
ENDCHAR
STARTCHAR a1e6
ENCODING 41420
SWIDTH 720 0
DWIDTH 8 0
BBX 7 9 0 0
BITMAP
FE
10
7C
92
7C
10
1C
12
1C
ENDCHAR
STARTCHAR a2c4
ENCODING 41421
SWIDTH 720 0
DWIDTH 8 0
BBX 7 9 0 0
BITMAP
F8
40
70
10
7C
92
7C
10
10
ENDCHAR
STARTCHAR a2c3
ENCODING 41422
SWIDTH 720 0
DWIDTH 8 0
BBX 7 9 0 0
BITMAP
FE
18
24
18
7C
92
92
7C
10
ENDCHAR
STARTCHAR char41353
ENCODING 41424
SWIDTH 450 0
DWIDTH 5 0
BBX 6 8 0 0
BITMAP
78
84
84
84
84
84
84
84
ENDCHAR
STARTCHAR a2f7
ENCODING 41427
SWIDTH 630 0
DWIDTH 7 0
BBX 6 8 0 0
BITMAP
78
84
84
84
84
84
04
04
ENDCHAR
STARTCHAR a3fc
ENCODING 41429
SWIDTH 630 0
DWIDTH 7 0
BBX 7 8 0 0
BITMAP
1C
22
22
E2
A2
22
22
22
ENDCHAR
STARTCHAR a1eb
ENCODING 41430
SWIDTH 540 0
DWIDTH 6 0
BBX 6 8 0 0
BITMAP
78
84
84
84
84
80
80
80
ENDCHAR
STARTCHAR a1ce
ENCODING 41432
SWIDTH 1170 0
DWIDTH 13 0
BBX 6 7 0 0
BITMAP
FC
00
78
84
84
84
84
ENDCHAR
STARTCHAR a3e0
ENCODING 41435
SWIDTH 540 0
DWIDTH 6 0
BBX 6 8 0 0
BITMAP
FC
00
78
84
84
84
04
04
ENDCHAR
STARTCHAR a5a1
ENCODING 41437
SWIDTH 1260 0
DWIDTH 14 0
BBX 7 8 0 0
BITMAP
3E
00
1C
22
E2
A2
22
22
ENDCHAR
STARTCHAR a5d4
ENCODING 41438
SWIDTH 540 0
DWIDTH 6 0
BBX 6 7 0 0
BITMAP
FC
00
78
84
84
80
80
ENDCHAR
STARTCHAR char41354
ENCODING 41440
SWIDTH 630 0
DWIDTH 7 0
BBX 7 8 1 0
BITMAP
10
10
FE
92
10
10
10
10
ENDCHAR
STARTCHAR a1ed
ENCODING 41441
SWIDTH 630 0
DWIDTH 7 0
BBX 7 8 0 0
BITMAP
10
10
FE
92
10
1E
12
10
ENDCHAR
STARTCHAR a1e5
ENCODING 41442
SWIDTH 1350 0
DWIDTH 15 0
BBX 7 8 0 -1
BITMAP
10
10
FE
92
10
10
1E
02
ENDCHAR
STARTCHAR a2f8
ENCODING 41443
SWIDTH 630 0
DWIDTH 7 0
BBX 7 8 0 0
BITMAP
10
10
FE
92
10
10
F0
80
ENDCHAR
STARTCHAR a4a7
ENCODING 41444
SWIDTH 720 0
DWIDTH 8 0
BBX 7 8 0 0
BITMAP
10
10
FE
92
10
1C
12
1C
ENDCHAR
STARTCHAR a4de
ENCODING 41445
SWIDTH 720 0
DWIDTH 8 0
BBX 7 8 0 0
BITMAP
40
70
10
FE
92
10
10
10
ENDCHAR
STARTCHAR a5b3
ENCODING 41446
SWIDTH 720 0
DWIDTH 8 0
BBX 7 8 0 0
BITMAP
30
48
30
FE
92
10
10
10
ENDCHAR
STARTCHAR char41355
ENCODING 41448
SWIDTH 720 0
DWIDTH 8 0
BBX 7 8 1 0
BITMAP
FE
10
10
FE
10
10
10
10
ENDCHAR
STARTCHAR a1b0
ENCODING 41449
SWIDTH 720 0
DWIDTH 8 0
BBX 7 8 0 0
BITMAP
FE
10
10
FE
10
1E
12
10
ENDCHAR
STARTCHAR a1e6
ENCODING 41450
SWIDTH 630 0
DWIDTH 7 0
BBX 7 8 0 -1
BITMAP
FE
10
10
FE
10
10
1E
02
ENDCHAR
STARTCHAR a4a1
ENCODING 41451
SWIDTH 720 0
DWIDTH 8 0
BBX 7 8 0 0
BITMAP
FC
40
70
10
FE
10
10
10
ENDCHAR
STARTCHAR a2f6
ENCODING 41452
SWIDTH 720 0
DWIDTH 8 0
BBX 7 8 0 0
BITMAP
FE
10
10
FE
10
10
F0
80
ENDCHAR
STARTCHAR a4a9
ENCODING 41453
SWIDTH 720 0
DWIDTH 8 0
BBX 7 8 0 0
BITMAP
FE
10
10
FE
10
1C
12
1C
ENDCHAR
STARTCHAR a5b4
ENCODING 41454
SWIDTH 720 0
DWIDTH 8 0
BBX 8 9 0 0
BITMAP
E1
7F
24
18
3F
08
08
08
08
ENDCHAR
STARTCHAR a3c7
ENCODING 41455
SWIDTH 630 0
DWIDTH 7 0
BBX 7 8 0 -2
BITMAP
FE
10
10
FE
10
10
7C
44
ENDCHAR
STARTCHAR char41356
ENCODING 41456
SWIDTH 90 0
DWIDTH 1 0
BBX 7 8 0 0
BITMAP
08
F8
88
8E
02
02
02
02
ENDCHAR
STARTCHAR a2fb
ENCODING 41459
SWIDTH 720 0
DWIDTH 8 0
BBX 7 8 0 0
BITMAP
08
F8
88
8E
02
02
7C
40
ENDCHAR
STARTCHAR a4a2
ENCODING 41461
SWIDTH 630 0
DWIDTH 7 0
BBX 6 8 0 0
BITMAP
10
30
50
9C
84
04
04
04
ENDCHAR
STARTCHAR char41357
ENCODING 41464
SWIDTH 360 0
DWIDTH 4 0
BBX 4 8 2 0
BITMAP
80
80
80
F0
10
10
10
10
ENDCHAR
STARTCHAR a1f0
ENCODING 41465
SWIDTH 720 0
DWIDTH 8 0
BBX 7 8 0 0
BITMAP
80
80
80
F0
1E
12
10
10
ENDCHAR
STARTCHAR a1e9
ENCODING 41466
SWIDTH 720 0
DWIDTH 8 0
BBX 7 8 0 -1
BITMAP
80
80
80
F0
10
10
1E
02
ENDCHAR
STARTCHAR a2fc
ENCODING 41467
SWIDTH 540 0
DWIDTH 6 0
BBX 6 8 0 0
BITMAP
7C
80
80
80
78
08
08
08
ENDCHAR
STARTCHAR a4ab
ENCODING 41468
SWIDTH 720 0
DWIDTH 8 0
BBX 7 8 0 0
BITMAP
80
80
80
F0
10
1C
12
1C
ENDCHAR
STARTCHAR a4e2
ENCODING 41469
SWIDTH 540 0
DWIDTH 6 0
BBX 6 8 0 0
BITMAP
F8
88
10
1C
04
08
08
08
ENDCHAR
STARTCHAR a5b7
ENCODING 41470
SWIDTH 720 0
DWIDTH 8 0
BBX 7 8 0 0
BITMAP
0C
72
8C
80
70
10
10
10
ENDCHAR
STARTCHAR a2d9
ENCODING 41471
SWIDTH 720 0
DWIDTH 8 0
BBX 5 8 3 2
BITMAP
80
80
80
E0
20
20
F8
88
ENDCHAR
STARTCHAR a2bf
ENCODING 41475
SWIDTH 720 0
DWIDTH 8 0
BBX 8 13 0 -2
BITMAP
7F
08
3E
40
40
38
08
08
00
00
00
00
FE
ENDCHAR
STARTCHAR a4bc
ENCODING 41477
SWIDTH 720 0
DWIDTH 8 0
BBX 8 9 0 0
BITMAP
E1
7E
10
7C
44
08
0C
04
04
ENDCHAR
STARTCHAR a1c9
ENCODING 41479
SWIDTH 540 0
DWIDTH 6 0
BBX 6 8 0 0
BITMAP
FC
78
80
80
70
10
7C
44
ENDCHAR
STARTCHAR char41359
ENCODING 41480
SWIDTH 270 0
DWIDTH 3 0
BBX 7 8 0 0
BITMAP
80
F8
10
28
44
82
82
82
ENDCHAR
STARTCHAR a3a1
ENCODING 41483
SWIDTH 1260 0
DWIDTH 14 0
BBX 7 8 0 0
BITMAP
80
F8
10
28
44
82
02
02
ENDCHAR
STARTCHAR a1c0
ENCODING 41485
SWIDTH 720 0
DWIDTH 8 0
BBX 7 8 0 0
BITMAP
90
E4
38
18
24
42
42
42
ENDCHAR
STARTCHAR a5ba
ENCODING 41486
SWIDTH 810 0
DWIDTH 9 0
BBX 7 8 0 0
BITMAP
80
F8
10
28
44
82
80
80
ENDCHAR
STARTCHAR a4bf
ENCODING 41487
SWIDTH 720 0
DWIDTH 8 0
BBX 7 8 0 0
BITMAP
F0
40
7C
08
14
22
42
42
ENDCHAR
STARTCHAR char41360
ENCODING 41488
SWIDTH 630 0
DWIDTH 7 0
BBX 7 8 1 0
BITMAP
80
80
FC
42
42
42
42
42
ENDCHAR
STARTCHAR a3a2
ENCODING 41491
SWIDTH 720 0
DWIDTH 8 0
BBX 7 8 1 2
BITMAP
80
80
FC
42
42
42
02
02
ENDCHAR
STARTCHAR a1c3
ENCODING 41493
SWIDTH 720 0
DWIDTH 8 0
BBX 6 7 0 0
BITMAP
80
F8
44
74
14
24
24
ENDCHAR
STARTCHAR a5bb
ENCODING 41494
SWIDTH 630 0
DWIDTH 7 0
BBX 7 8 0 0
BITMAP
80
80
FC
42
42
42
40
40
ENDCHAR
STARTCHAR char41361
ENCODING 41496
SWIDTH 270 0
DWIDTH 3 0
BBX 7 8 1 0
BITMAP
F8
40
40
3C
42
42
42
42
ENDCHAR
STARTCHAR a1c6
ENCODING 41512
SWIDTH 630 0
DWIDTH 7 0
BBX 6 8 0 0
BITMAP
78
84
84
84
84
84
84
78
ENDCHAR
STARTCHAR a3a6
ENCODING 41515
SWIDTH 630 0
DWIDTH 7 0
BBX 7 8 0 0
BITMAP
70
88
88
88
7E
02
02
02
ENDCHAR
STARTCHAR a4ea
ENCODING 41517
SWIDTH 720 0
DWIDTH 8 0
BBX 5 8 1 2
BITMAP
20
20
70
88
88
88
88
70
ENDCHAR
STARTCHAR a4df
ENCODING 41518
SWIDTH 630 0
DWIDTH 7 0
BBX 5 8 0 0
BITMAP
70
88
88
88
70
40
80
80
ENDCHAR
STARTCHAR a1c7
ENCODING 41520
SWIDTH 540 0
DWIDTH 6 0
BBX 6 8 0 0
BITMAP
84
84
84
FC
84
84
84
84
ENDCHAR
STARTCHAR a2c7
ENCODING 41523
SWIDTH 630 0
DWIDTH 7 0
BBX 6 8 0 0
BITMAP
84
84
84
FC
84
84
04
04
ENDCHAR
STARTCHAR a4eb
ENCODING 41525
SWIDTH 630 0
DWIDTH 7 0
BBX 7 8 0 0
BITMAP
E2
A2
22
3E
22
22
22
22
ENDCHAR
STARTCHAR a4e0
ENCODING 41526
SWIDTH 540 0
DWIDTH 6 0
BBX 6 8 0 0
BITMAP
84
84
84
FC
84
84
80
80
ENDCHAR
STARTCHAR a1ca
ENCODING 41536
SWIDTH 450 0
DWIDTH 5 0
BBX 5 8 0 0
BITMAP
70
88
88
F0
40
20
20
20
ENDCHAR
STARTCHAR a1d8
ENCODING 41537
SWIDTH 540 0
DWIDTH 6 0
BBX 5 8 0 0
BITMAP
70
88
88
F0
40
78
48
40
ENDCHAR
STARTCHAR a2b1
ENCODING 41538
SWIDTH 720 0
DWIDTH 8 0
BBX 7 8 0 0
BITMAP
70
88
88
F0
44
3C
26
20
ENDCHAR
STARTCHAR a3a9
ENCODING 41539
SWIDTH 450 0
DWIDTH 5 0
BBX 5 8 0 0
BITMAP
70
88
F0
40
20
10
F0
80
ENDCHAR
STARTCHAR a4b9
ENCODING 41540
SWIDTH 630 0
DWIDTH 7 0
BBX 7 8 0 0
BITMAP
70
88
88
F0
4C
32
2C
20
ENDCHAR
STARTCHAR a4ee
ENCODING 41541
SWIDTH 720 0
DWIDTH 8 0
BBX 6 8 0 0
BITMAP
70
88
88
F0
80
84
78
80
ENDCHAR
STARTCHAR a1cb
ENCODING 41544
SWIDTH 540 0
DWIDTH 6 0
BBX 6 8 0 0
BITMAP
38
44
44
78
40
7C
84
84
ENDCHAR
STARTCHAR a4ba
ENCODING 41548
SWIDTH 720 0
DWIDTH 8 0
BBX 8 9 0 -1
BITMAP
30
48
48
70
40
7E
E1
09
0E
ENDCHAR
STARTCHAR a5c5
ENCODING 41550
SWIDTH 720 0
DWIDTH 8 0
BBX 6 8 0 0
BITMAP
38
44
44
78
40
7C
84
80
ENDCHAR
STARTCHAR a1ce
ENCODING 41552
SWIDTH 1080 0
DWIDTH 12 0
BBX 6 8 0 0
BITMAP
10
38
44
44
78
40
7C
84
ENDCHAR
STARTCHAR a2e4
ENCODING 41555
SWIDTH 720 0
DWIDTH 8 0
BBX 6 8 0 0
BITMAP
10
38
44
78
40
7C
84
04
ENDCHAR
STARTCHAR char41368
ENCODING 41560
SWIDTH 630 0
DWIDTH 7 0
BBX 7 8 0 0
BITMAP
FE
38
44
44
78
20
3E
42
ENDCHAR
STARTCHAR a2e5
ENCODING 41563
SWIDTH 720 0
DWIDTH 8 0
BBX 7 8 0 0
BITMAP
FE
38
44
78
40
7C
84
04
ENDCHAR
STARTCHAR a5c3
ENCODING 41566
SWIDTH 630 0
DWIDTH 7 0
BBX 7 8 0 0
BITMAP
FE
38
44
44
78
40
7C
84
ENDCHAR
STARTCHAR a1ce
ENCODING 41568
SWIDTH 540 0
DWIDTH 6 0
BBX 5 7 0 0
BITMAP
F0
88
08
08
08
08
08
ENDCHAR
STARTCHAR a2d5
ENCODING 41570
SWIDTH 720 0
DWIDTH 8 0
BBX 7 7 0 -1
BITMAP
E0
90
10
10
10
1E
02
ENDCHAR
STARTCHAR a2ce
ENCODING 41571
SWIDTH 540 0
DWIDTH 6 0
BBX 5 7 0 0
BITMAP
F0
88
08
08
08
F0
80
ENDCHAR
STARTCHAR a4f2
ENCODING 41573
SWIDTH 630 0
DWIDTH 7 0
BBX 6 7 0 0
BITMAP
F8
A4
E4
04
04
04
04
ENDCHAR
STARTCHAR a4e7
ENCODING 41574
SWIDTH 540 0
DWIDTH 6 0
BBX 5 8 0 0
BITMAP
20
20
F0
88
08
08
08
08
ENDCHAR
STARTCHAR char41370
ENCODING 41576
SWIDTH 450 0
DWIDTH 5 0
BBX 5 8 0 0
BITMAP
20
20
70
88
88
70
88
88
ENDCHAR
STARTCHAR a4ec
ENCODING 41582
SWIDTH 540 0
DWIDTH 6 0
BBX 5 8 0 0
BITMAP
20
70
88
88
70
88
80
80
ENDCHAR
STARTCHAR char41371
ENCODING 41584
SWIDTH 180 0
DWIDTH 2 0
BBX 5 7 0 0
BITMAP
70
88
88
70
88
88
88
ENDCHAR
STARTCHAR a4ed
ENCODING 41590
SWIDTH 450 0
DWIDTH 5 0
BBX 5 7 0 0
BITMAP
70
88
88
70
88
80
80
ENDCHAR
STARTCHAR char41372
ENCODING 41592
SWIDTH 180 0
DWIDTH 2 0
BBX 6 7 0 0
BITMAP
78
84
84
FC
84
84
78
ENDCHAR
STARTCHAR a2d5
ENCODING 41595
SWIDTH 630 0
DWIDTH 7 0
BBX 5 8 0 0
BITMAP
70
88
F8
88
78
08
08
08
ENDCHAR
STARTCHAR a4f9
ENCODING 41597
SWIDTH 540 0
DWIDTH 6 0
BBX 5 8 0 0
BITMAP
20
20
70
88
88
F8
88
70
ENDCHAR
STARTCHAR a5cf
ENCODING 41598
SWIDTH 810 0
DWIDTH 9 0
BBX 5 8 0 0
BITMAP
70
88
F8
88
70
40
80
80
ENDCHAR
STARTCHAR char41373
ENCODING 41600
SWIDTH 630 0
DWIDTH 7 0
BBX 7 8 0 0
BITMAP
10
10
20
40
E0
90
90
7E
ENDCHAR
STARTCHAR a1e6
ENCODING 41601
SWIDTH 720 0
DWIDTH 8 0
BBX 7 8 1 2
BITMAP
10
20
40
F0
90
FE
10
60
ENDCHAR
STARTCHAR a2a6
ENCODING 41602
SWIDTH 630 0
DWIDTH 7 0
BBX 7 8 0 0
BITMAP
10
10
20
40
A0
92
92
7C
ENDCHAR
STARTCHAR a2d6
ENCODING 41603
SWIDTH 720 0
DWIDTH 8 0
BBX 7 8 0 0
BITMAP
10
20
40
F0
90
FE
10
10
ENDCHAR
STARTCHAR a4f8
ENCODING 41605
SWIDTH 630 0
DWIDTH 7 0
BBX 6 8 0 0
BITMAP
3C
44
80
E0
90
7C
14
10
ENDCHAR
STARTCHAR a5d0
ENCODING 41606
SWIDTH 810 0
DWIDTH 9 0
BBX 7 7 0 0
BITMAP
3C
52
8C
80
E0
92
7C
ENDCHAR
STARTCHAR char41374
ENCODING 41608
SWIDTH 360 0
DWIDTH 4 0
BBX 7 8 0 0
BITMAP
FE
92
10
10
10
10
10
10
ENDCHAR
STARTCHAR a1e7
ENCODING 41609
SWIDTH 1440 0
DWIDTH 16 0
BBX 7 8 0 0
BITMAP
FE
92
10
10
1E
12
10
10
ENDCHAR
STARTCHAR a2e6
ENCODING 41610
SWIDTH 720 0
DWIDTH 8 0
BBX 7 8 0 0
BITMAP
FE
92
10
10
10
10
1E
02
ENDCHAR
STARTCHAR a2ef
ENCODING 41611
SWIDTH 720 0
DWIDTH 8 0
BBX 8 8 0 1
BITMAP
7F
49
08
08
08
08
78
80
ENDCHAR
STARTCHAR a4c9
ENCODING 41612
SWIDTH 720 0
DWIDTH 8 0
BBX 7 8 0 0
BITMAP
FE
92
10
10
10
1C
12
1C
ENDCHAR
STARTCHAR a4f1
ENCODING 41614
SWIDTH 630 0
DWIDTH 7 0
BBX 7 8 0 0
BITMAP
FE
92
10
20
40
80
80
80
ENDCHAR
STARTCHAR a4fa
ENCODING 41638
SWIDTH 720 0
DWIDTH 8 0
BBX 7 12 1 2
BITMAP
FE
00
00
00
00
00
00
30
00
00
00
30
ENDCHAR
STARTCHAR a4f5
ENCODING 41639
SWIDTH 720 0
DWIDTH 8 0
BBX 6 5 1 3
BITMAP
CC
00
00
00
CC
ENDCHAR
STARTCHAR a5d7
ENCODING 41640
SWIDTH 720 0
DWIDTH 8 0
BBX 8 14 0 -2
BITMAP
08
00
3E
00
08
00
00
00
00
00
FE
5E
3B
FD
ENDCHAR
STARTCHAR a5d8
ENCODING 41641
SWIDTH 720 0
DWIDTH 8 0
BBX 7 12 1 2
BITMAP
FE
00
00
00
00
00
00
7C
00
10
00
10
ENDCHAR
STARTCHAR a4f9
ENCODING 41642
SWIDTH 720 0
DWIDTH 8 0
BBX 8 14 0 -2
BITMAP
3E
00
08
00
08
00
3E
00
00
00
00
FE
3A
FD
ENDCHAR
STARTCHAR a5dd
ENCODING 41644
SWIDTH 720 0
DWIDTH 8 0
BBX 7 13 1 1
BITMAP
FE
00
00
00
00
38
44
04
04
08
10
00
10
ENDCHAR
STARTCHAR a5ee
ENCODING 41656
SWIDTH 720 0
DWIDTH 8 0
BBX 6 7 1 3
BITMAP
14
28
50
A0
50
28
14
ENDCHAR
STARTCHAR a5ef
ENCODING 41657
SWIDTH 720 0
DWIDTH 8 0
BBX 8 16 0 -2
BITMAP
FE
3E
3E
FD
7F
00
00
00
00
50
28
14
0A
14
28
50
ENDCHAR
STARTCHAR a5bb
ENCODING 41668
SWIDTH 720 0
DWIDTH 8 0
BBX 7 13 1 1
BITMAP
FE
FE
82
7C
54
5C
40
44
44
7C
00
FE
82
ENDCHAR
STARTCHAR a5bf
ENCODING 41670
SWIDTH 720 0
DWIDTH 8 0
BBX 7 12 1 2
BITMAP
FE
82
54
54
54
7C
04
04
04
00
FE
82
ENDCHAR
STARTCHAR a3b6
ENCODING 41682
SWIDTH 720 0
DWIDTH 8 0
BBX 7 13 1 1
BITMAP
FE
00
00
00
00
10
7C
92
92
7C
10
7C
44
ENDCHAR
STARTCHAR a4cb
ENCODING 41683
SWIDTH 720 0
DWIDTH 8 0
BBX 8 14 0 0
BITMAP
FD
7F
00
00
00
00
08
3E
49
3E
08
0E
09
7E
ENDCHAR
STARTCHAR a1e2
ENCODING 41694
SWIDTH 720 0
DWIDTH 8 0
BBX 7 5 0 0
BITMAP
7C
92
92
80
80
ENDCHAR
ENDFONT
